<svg enable-background="new 0 0 24 24" height="512" viewBox="0 0 24 24" width="512" xmlns="http://www.w3.org/2000/svg"><g id="color_1_"><g><path d="m21.25 2h-18.5c-1.52 0-2.75 1.23-2.75 2.75v14.5c0 1.52 1.23 2.75 2.75 2.75h18.5c1.52 0 2.75-1.23 2.75-2.75v-14.5c0-1.52-1.23-2.75-2.75-2.75z" fill="#eceff1"/></g></g><g id="regular_1.5"><g><path d="m21.25 22h-18.5c-1.517 0-2.75-1.233-2.75-2.75v-14.5c0-1.517 1.233-2.75 2.75-2.75h18.5c1.517 0 2.75 1.233 2.75 2.75v14.5c0 1.517-1.233 2.75-2.75 2.75zm-18.5-18.5c-.689 0-1.25.561-1.25 1.25v14.5c0 .689.561 1.25 1.25 1.25h18.5c.689 0 1.25-.561 1.25-1.25v-14.5c0-.689-.561-1.25-1.25-1.25z"/></g><g><path d="m3.75 10c-.414 0-.75-.336-.75-.75v-1.5c0-1.517 1.233-2.75 2.75-2.75h1.5c.414 0 .75.336.75.75s-.336.75-.75.75h-1.5c-.689 0-1.25.561-1.25 1.25v1.5c0 .414-.336.75-.75.75z"/></g><g><path d="m18.25 19h-1.5c-.414 0-.75-.336-.75-.75s.336-.75.75-.75h1.5c.689 0 1.25-.561 1.25-1.25v-1.5c0-.414.336-.75.75-.75s.75.336.75.75v1.5c0 1.517-1.233 2.75-2.75 2.75z"/></g></g></svg>