<?xml version="1.0" encoding="iso-8859-1"?>
<!-- Generator: Adobe Illustrator 16.0.0, SVG Export Plug-In . SVG Version: 6.00 Build 0)  -->
<!DOCTYPE svg PUBLIC "-//W3C//DTD SVG 1.1//EN" "http://www.w3.org/Graphics/SVG/1.1/DTD/svg11.dtd">
<svg version="1.1" id="Capa_1" xmlns="http://www.w3.org/2000/svg" xmlns:xlink="http://www.w3.org/1999/xlink" x="0px" y="0px"
	 width="198.71px" height="198.711px" viewBox="0 0 198.71 198.711" style="enable-background:new 0 0 198.71 198.711;"
	 xml:space="preserve">
<g>
	<g>
		<ellipse cx="99.278" cy="16.611" rx="16.832" ry="16.611"/>
		<path d="M149.462,63.191L123.659,37.39c-1.341-1.34-3.147-1.717-4.907-1.717c-9.629,0-28.657,0-38.578,0
			c-1.761,0-3.782,0.377-5.122,1.717l-26,26.007c-1.125,1.126-1.562,2.663-1.562,4.255c0,1.592,0.632,2.901,1.757,4.026
			l21.251,21.594c1.172,1.172,2.853,1.775,4.388,1.775c1.536,0,3.07-0.585,4.242-1.757c0.003-0.003,0.005-0.006,0.005-0.009v96.427
			c0,4.972,4.022,9.002,8.994,9.002c5.293,0,9.116-4.153,9.116-9.126v-68.023l4.205,0.125v68.023c0,4.973,4.022,9.002,8.993,9.002
			c4.972,0,8.994-4.029,8.994-9.002l0.142-96.427c1.646,1.457,2.858,1.749,4.396,1.749s3.069-0.586,4.242-1.758l21.25-21.593
			C151.808,69.335,151.806,65.535,149.462,63.191z M79.128,84.803L62.502,68.179c-0.14-0.14-0.218-0.33-0.218-0.527
			c0-0.197,0.078-0.388,0.218-0.527l16.631-16.632v34.319C79.134,84.808,79.132,84.806,79.128,84.803z M119.577,84.812v-34.32
			l16.631,16.632c0.292,0.291,0.292,0.764,0,1.055L119.577,84.812z"/>
	</g>
</g>
<g>
</g>
<g>
</g>
<g>
</g>
<g>
</g>
<g>
</g>
<g>
</g>
<g>
</g>
<g>
</g>
<g>
</g>
<g>
</g>
<g>
</g>
<g>
</g>
<g>
</g>
<g>
</g>
<g>
</g>
</svg>
